<?xml version="1.0" encoding="UTF-8" standalone="no"?>
<!-- Created with Inkscape (http://www.inkscape.org/) -->

<svg
   xmlns:dc="http://purl.org/dc/elements/1.1/"
   xmlns:cc="http://creativecommons.org/ns#"
   xmlns:rdf="http://www.w3.org/1999/02/22-rdf-syntax-ns#"
   xmlns:svg="http://www.w3.org/2000/svg"
   xmlns="http://www.w3.org/2000/svg"
   xmlns:sodipodi="http://sodipodi.sourceforge.net/DTD/sodipodi-0.dtd"
   xmlns:inkscape="http://www.inkscape.org/namespaces/inkscape"
   id="svg2"
   version="1.1"
   inkscape:version="0.91 r13725"
   xml:space="preserve"
   width="166.25"
   height="34.375"
   viewBox="0 0 166.25 34.375"
   sodipodi:docname="qamcom_eps_w_invisible_frame.svg"><metadata
     id="metadata8"><rdf:RDF><cc:Work
         rdf:about=""><dc:format>image/svg+xml</dc:format><dc:type
           rdf:resource="http://purl.org/dc/dcmitype/StillImage" /><dc:title></dc:title></cc:Work></rdf:RDF></metadata><defs
     id="defs6" /><sodipodi:namedview
     pagecolor="#ffffff"
     bordercolor="#666666"
     borderopacity="1"
     objecttolerance="10"
     gridtolerance="10"
     guidetolerance="10"
     inkscape:pageopacity="0"
     inkscape:pageshadow="2"
     inkscape:window-width="1866"
     inkscape:window-height="1051"
     id="namedview4"
     showgrid="false"
     inkscape:zoom="2.9233083"
     inkscape:cx="83.125"
     inkscape:cy="17.1875"
     inkscape:window-x="54"
     inkscape:window-y="0"
     inkscape:window-maximized="1"
     inkscape:current-layer="g10" /><g
     id="g10"
     inkscape:groupmode="layer"
     inkscape:label="ink_ext_XXXXXX"
     transform="matrix(1.25,0,0,-1.25,0,34.375)"><g
       id="g12"
       transform="scale(0.1,0.1)"><path
         d="m 462.395,34.918 26.238,0 0,164.258 -26.238,0 0,-14.895 -0.508,0 c -9.332,11.61 -23.465,18.16 -40.114,18.16 -40.117,0 -63.328,-32.793 -63.328,-64.332 0,-30.023 24.973,-64.3395 64.586,-64.3395 18.164,0 32.043,7.8282 38.856,18.1797 l 0.508,0 0,-57.0312 z m -76.2,103.191 c 0,21.957 17.668,39.625 38.848,39.625 20.699,0 38.359,-17.668 38.359,-39.625 0,-21.941 -17.66,-39.5973 -38.359,-39.5973 -21.18,0 -38.848,17.6563 -38.848,39.5973"
         style="fill:#231f20;fill-opacity:1;fill-rule:nonzero;stroke:none"
         id="path14"
         inkscape:connector-curvature="0" /><path
         d="m 616.801,77.0664 26.234,0 0,122.1096 -26.234,0 0,-14.895 -0.508,0 c -6.813,10.344 -20.688,18.16 -38.852,18.16 -39.609,0 -64.589,-34.304 -64.589,-64.332 0,-31.539 23.211,-64.3395 63.332,-64.3395 16.644,0 31.781,7.0743 40.109,18.1797 l 0.508,0 0,-14.8828 z m -76.196,61.0426 c 0,21.957 17.657,39.625 38.86,39.625 20.68,0 38.344,-17.668 38.344,-39.625 0,-21.941 -17.664,-39.5973 -38.344,-39.5973 -21.203,0 -38.86,17.6563 -38.86,39.5973"
         style="fill:#231f20;fill-opacity:1;fill-rule:nonzero;stroke:none"
         id="path16"
         inkscape:connector-curvature="0" /><path
         d="m 676.34,153.5 c 0,31.031 20.691,48.941 44.656,48.941 18.418,0 31.797,-8.828 36.582,-21.687 l 0.512,0 c 4.793,12.859 18.16,21.687 36.582,21.687 23.965,0 44.652,-17.91 44.652,-48.941 l 0,-76.4336 -26.238,0 0,76.1876 c 0,14.637 -9.336,22.953 -20.18,22.953 -12.617,0 -21.953,-7.562 -21.953,-26.488 l 0,-72.6526 -26.246,0 0,72.6526 c 0,18.926 -9.324,26.488 -21.941,26.488 -10.848,0 -20.192,-8.316 -20.192,-22.953 l 0,-76.1876 -26.234,0 0,76.4336"
         style="fill:#231f20;fill-opacity:1;fill-rule:nonzero;stroke:none"
         id="path18"
         inkscape:connector-curvature="0" /><path
         d="m 962.703,159.309 c -7.066,10.851 -16.902,18.425 -31.789,18.425 -22.965,0 -39.613,-17.668 -39.613,-39.625 0,-21.941 16.648,-39.5973 39.613,-39.5973 14.375,0 24.723,7.3163 31.789,18.3983 L 985.66,103.301 C 974.82,86.1445 954.117,73.7695 930.914,73.7695 c -42.637,0 -67.367,32.0585 -67.367,64.3395 0,32.297 24.73,64.332 67.367,64.332 25.981,0 42.891,-12.351 54.746,-29.511 l -22.957,-13.621"
         style="fill:#231f20;fill-opacity:1;fill-rule:nonzero;stroke:none"
         id="path20"
         inkscape:connector-curvature="0" /><path
         d="m 999.027,138.109 c 0,-32.281 24.723,-64.3395 67.363,-64.3395 42.64,0 67.37,32.0585 67.37,64.3395 0,32.297 -24.73,64.332 -67.37,64.332 -42.64,0 -67.363,-32.035 -67.363,-64.332 z m 27.763,0 c 0,21.957 16.64,39.625 39.6,39.625 22.95,0 39.61,-17.668 39.61,-39.625 0,-21.941 -16.66,-39.5973 -39.61,-39.5973 -22.96,0 -39.6,17.6563 -39.6,39.5973"
         style="fill:#231f20;fill-opacity:1;fill-rule:nonzero;stroke:none"
         id="path22"
         inkscape:connector-curvature="0" /><path
         d="m 1157.98,153.5 c 0,31.031 20.68,48.941 44.66,48.941 18.41,0 31.78,-8.828 36.57,-21.687 l 0.51,0 c 4.79,12.859 18.17,21.687 36.59,21.687 23.96,0 44.65,-17.91 44.65,-48.941 l 0,-76.4336 -26.24,0 0,76.1876 c 0,14.637 -9.32,22.953 -20.18,22.953 -12.62,0 -21.95,-7.562 -21.95,-26.488 l 0,-72.6526 -26.24,0 0,72.6526 c 0,18.926 -9.33,26.488 -21.95,26.488 -10.85,0 -20.2,-8.316 -20.2,-22.953 l 0,-76.1876 -26.22,0 0,76.4336"
         style="fill:#231f20;fill-opacity:1;fill-rule:nonzero;stroke:none"
         id="path24"
         inkscape:connector-curvature="0" /><path
         d="m 57.9258,241.23 c 0,-13.296 -10.7969,-24.082 -24.082,-24.082 -13.2969,0 -24.08208,10.786 -24.08208,24.082 0,13.301 10.78518,24.083 24.08208,24.083 13.2851,0 24.082,-10.782 24.082,-24.083"
         style="fill:#231f20;fill-opacity:1;fill-rule:nonzero;stroke:none"
         id="path26"
         inkscape:connector-curvature="0" /><path
         d="m 264.32,241.23 c 0,-13.296 -10.789,-24.082 -24.082,-24.082 -13.289,0 -24.082,10.786 -24.082,24.082 0,13.301 10.793,24.083 24.082,24.083 13.293,0 24.082,-10.782 24.082,-24.083"
         style="fill:#231f20;fill-opacity:1;fill-rule:nonzero;stroke:none"
         id="path28"
         inkscape:connector-curvature="0" /><path
         d="m 195.512,241.23 c 0,-13.296 -10.782,-24.082 -24.071,-24.082 -13.3,0 -24.082,10.786 -24.082,24.082 0,13.301 10.782,24.083 24.082,24.083 13.289,0 24.071,-10.782 24.071,-24.083"
         style="fill:#231f20;fill-opacity:1;fill-rule:nonzero;stroke:none"
         id="path30"
         inkscape:connector-curvature="0" /><path
         d="m 126.723,241.23 c 0,-13.296 -10.782,-24.082 -24.082,-24.082 -13.2933,0 -24.0824,10.786 -24.0824,24.082 0,13.301 10.7891,24.083 24.0824,24.083 13.3,0 24.082,-10.782 24.082,-24.083"
         style="fill:#231f20;fill-opacity:1;fill-rule:nonzero;stroke:none"
         id="path32"
         inkscape:connector-curvature="0" /><path
         d="m 57.9258,103.633 c 0,-13.3049 -10.7969,-24.0822 -24.082,-24.0822 -13.2969,0 -24.08208,10.7773 -24.08208,24.0822 0,13.301 10.78518,24.082 24.08208,24.082 13.2851,0 24.082,-10.781 24.082,-24.082"
         style="fill:#231f20;fill-opacity:1;fill-rule:nonzero;stroke:none"
         id="path34"
         inkscape:connector-curvature="0" /><path
         d="m 264.32,103.633 c 0,-13.3049 -10.781,-24.0822 -24.082,-24.0822 -13.289,0 -24.082,10.7773 -24.082,24.0822 0,13.301 10.793,24.082 24.082,24.082 13.301,0 24.082,-10.781 24.082,-24.082"
         style="fill:#231f20;fill-opacity:1;fill-rule:nonzero;stroke:none"
         id="path36"
         inkscape:connector-curvature="0" /><path
         d="m 195.512,103.633 c 0,-13.3049 -10.782,-24.0822 -24.071,-24.0822 -13.3,0 -24.082,10.7773 -24.082,24.0822 0,13.301 10.782,24.082 24.082,24.082 13.289,0 24.071,-10.781 24.071,-24.082"
         style="fill:#7dd5f7;fill-opacity:1;fill-rule:nonzero;stroke:none"
         id="path38"
         inkscape:connector-curvature="0" /><path
         d="m 126.723,103.633 c 0,-13.3049 -10.782,-24.0822 -24.082,-24.0822 -13.2933,0 -24.0824,10.7773 -24.0824,24.0822 0,13.301 10.7891,24.082 24.0824,24.082 13.3,0 24.082,-10.781 24.082,-24.082"
         style="fill:#231f20;fill-opacity:1;fill-rule:nonzero;stroke:none"
         id="path40"
         inkscape:connector-curvature="0" /><path
         d="m 57.9258,34.8359 c 0,-13.3086 -10.7969,-24.082 -24.082,-24.082 -13.2969,0 -24.08208,10.7734 -24.08208,24.082 0,13.3008 10.78518,24.0782 24.08208,24.0782 13.2851,0 24.082,-10.7774 24.082,-24.0782"
         style="fill:#231f20;fill-opacity:1;fill-rule:nonzero;stroke:none"
         id="path42"
         inkscape:connector-curvature="0" /><path
         d="m 264.32,34.8359 c 0,-13.3086 -10.781,-24.082 -24.082,-24.082 -13.289,0 -24.082,10.7734 -24.082,24.082 0,13.3008 10.793,24.0782 24.082,24.0782 13.301,0 24.082,-10.7774 24.082,-24.0782"
         style="fill:#7dd5f7;fill-opacity:1;fill-rule:nonzero;stroke:none"
         id="path44"
         inkscape:connector-curvature="0" /><path
         d="m 195.512,34.8359 c 0,-13.3086 -10.782,-24.082 -24.071,-24.082 -13.3,0 -24.082,10.7734 -24.082,24.082 0,13.3008 10.782,24.0782 24.082,24.0782 13.289,0 24.071,-10.7774 24.071,-24.0782"
         style="fill:#231f20;fill-opacity:1;fill-rule:nonzero;stroke:none"
         id="path46"
         inkscape:connector-curvature="0" /><path
         d="m 126.723,34.8359 c 0,-13.3086 -10.782,-24.082 -24.082,-24.082 -13.2933,0 -24.0824,10.7734 -24.0824,24.082 0,13.3008 10.7891,24.0782 24.0824,24.0782 13.3,0 24.082,-10.7774 24.082,-24.0782"
         style="fill:#231f20;fill-opacity:1;fill-rule:nonzero;stroke:none"
         id="path48"
         inkscape:connector-curvature="0" /><path
         d="m 57.9258,172.434 c 0,-13.301 -10.7969,-24.082 -24.082,-24.082 -13.2969,0 -24.08208,10.781 -24.08208,24.082 0,13.304 10.78518,24.074 24.08208,24.074 13.2851,0 24.082,-10.77 24.082,-24.074"
         style="fill:#231f20;fill-opacity:1;fill-rule:nonzero;stroke:none"
         id="path50"
         inkscape:connector-curvature="0" /><path
         d="m 264.32,172.434 c 0,-13.301 -10.781,-24.082 -24.082,-24.082 -13.289,0 -24.082,10.781 -24.082,24.082 0,13.304 10.793,24.074 24.082,24.074 13.301,0 24.082,-10.77 24.082,-24.074"
         style="fill:#231f20;fill-opacity:1;fill-rule:nonzero;stroke:none"
         id="path52"
         inkscape:connector-curvature="0" /><path
         d="m 195.512,172.434 c 0,-13.301 -10.782,-24.082 -24.071,-24.082 -13.3,0 -24.082,10.781 -24.082,24.082 0,13.304 10.782,24.074 24.082,24.074 13.289,0 24.071,-10.77 24.071,-24.074"
         style="fill:#231f20;fill-opacity:1;fill-rule:nonzero;stroke:none"
         id="path54"
         inkscape:connector-curvature="0" /><path
         d="m 126.723,172.434 c 0,-13.301 -10.782,-24.082 -24.082,-24.082 -13.2933,0 -24.0824,10.781 -24.0824,24.082 0,13.304 10.7891,24.074 24.0824,24.074 13.3,0 24.082,-10.77 24.082,-24.074"
         style="fill:#231f20;fill-opacity:1;fill-rule:nonzero;stroke:none"
         id="path56"
         inkscape:connector-curvature="0" /></g></g></svg>