<?xml version="1.0" encoding="UTF-8" standalone="no"?>
<svg
   xmlns:dc="http://purl.org/dc/elements/1.1/"
   xmlns:cc="http://creativecommons.org/ns#"
   xmlns:rdf="http://www.w3.org/1999/02/22-rdf-syntax-ns#"
   xmlns:svg="http://www.w3.org/2000/svg"
   xmlns="http://www.w3.org/2000/svg"
   viewBox="0 0 712.34668 418.12"
   height="418.12"
   width="712.34668"
   xml:space="preserve"
   id="svg2"
   version="1.1"><metadata
     id="metadata8"><rdf:RDF><cc:Work
         rdf:about=""><dc:format>image/svg+xml</dc:format><dc:type
           rdf:resource="http://purl.org/dc/dcmitype/StillImage" /></cc:Work></rdf:RDF></metadata><defs
     id="defs6" /><g
     transform="matrix(1.3333333,0,0,-1.3333333,0,748.12)"
     id="g10"><g
       transform="scale(0.1)"
       id="g12"><path
         id="path14"
         style="fill:#072f54;fill-opacity:1;fill-rule:nonzero;stroke:none"
         d="m 3289.37,2560.43 -456.51,2362.8 c 0,0 -538.78,-1235.56 -564.98,-1295.55 -26.12,59.99 -564.87,1295.55 -564.87,1295.55 L 1357.61,3160.4 h 240.33 c 0,0 138.58,784.31 176.33,998.03 4.24,23.87 7.2,58.63 8.57,66.38 0.55,-1.29 1.29,1 2.12,-1.89 3.8,-13.02 10.27,-44.37 19.06,-64.28 96.32,-219.07 463.86,-1055.07 463.86,-1055.07 0,0 367.07,834.7 463.75,1054.55 9.28,21.2 16.08,54.47 19.81,66.65 0.6,1.98 1.13,-0.96 1.54,0.04 1.39,-7.75 4.37,-42.48 8.55,-66.34 24.34,-137.52 90.4,-511.46 134.4,-760.52 l 144.14,-837.52 h 249.3" /><path
         id="path16"
         style="fill:#072f54;fill-opacity:1;fill-rule:nonzero;stroke:none"
         d="m 860.742,5173.81 -88.086,437.05 -89.418,-396.9 -8.14,-36.02 h -0.059 L 183.098,3167.89 h 240.847 l 327.2,1541.64 10.632,81.5 9.352,-81.67 319.651,-1712.01 h 246.48 L 860.742,5173.81" /><path
         id="path18"
         style="fill:#072f54;fill-opacity:1;fill-rule:nonzero;stroke:none"
         d="M 3279.48,4819.04 V 3160.4 h 233.01 v 1658.64 h -233.01" /><path
         id="path20"
         style="fill:#ee2922;fill-opacity:1;fill-rule:nonzero;stroke:none"
         d="m 3421.9,5419.28 h -228.51 l 79.12,-447.94 h 237.13 l -87.74,447.94" /><path
         id="path22"
         style="fill:#072f54;fill-opacity:1;fill-rule:nonzero;stroke:none"
         d="m 4501.39,3353.56 c -331.54,0 -601.21,285.36 -601.21,636.17 0,362.67 258.45,636.19 601.21,636.19 342.76,0 601.18,-273.52 601.18,-636.19 0,-350.81 -269.67,-636.17 -601.18,-636.17 z m 0,1507.65 c -463.86,0 -841.27,-390.96 -841.27,-871.48 0,-488.71 369.54,-871.51 841.27,-871.51 471.71,0 841.24,382.8 841.24,871.51 0,480.52 -377.39,871.48 -841.24,871.48" /><path
         id="path24"
         style="fill:#ee2922;fill-opacity:1;fill-rule:nonzero;stroke:none"
         d="m 4677.14,3775.42 h -220.26 l 160.57,-913.57 h 239.16 l -179.47,913.57" /><path
         id="path26"
         style="fill:#ee2922;fill-opacity:1;fill-rule:nonzero;stroke:none"
         d="M 921.316,3904.96 H 0 v -210 h 960.535 l -39.219,210" />
</g></g></svg>
