<?xml version="1.0" encoding="UTF-8" standalone="no"?>
<svg
   role="img"
   viewBox="11.37 44.37 199.99999 80"
   version="1.1"
   id="svg40"
   sodipodi:docname="Axelera.svg"
   inkscape:version="1.2.2 (1:1.2.2+202212051552+b0a8486541)"
   width="200"
   height="80"
   xml:space="preserve"
   xmlns:inkscape="http://www.inkscape.org/namespaces/inkscape"
   xmlns:sodipodi="http://sodipodi.sourceforge.net/DTD/sodipodi-0.dtd"
   xmlns="http://www.w3.org/2000/svg"
   xmlns:svg="http://www.w3.org/2000/svg"
   xmlns:rdf="http://www.w3.org/1999/02/22-rdf-syntax-ns#"
   xmlns:cc="http://creativecommons.org/ns#"
   xmlns:dc="http://purl.org/dc/elements/1.1/"><defs
     id="defs44"><style
       id="style18453">.b{fill:#fff;}.c{fill:#e35530;}.d{fill:#303030;}</style></defs><sodipodi:namedview
     id="namedview42"
     pagecolor="#ffffff"
     bordercolor="#666666"
     borderopacity="1.0"
     inkscape:showpageshadow="2"
     inkscape:pageopacity="0.0"
     inkscape:pagecheckerboard="0"
     inkscape:deskcolor="#d1d1d1"
     showgrid="false"
     inkscape:zoom="1.9216862"
     inkscape:cx="290.1098"
     inkscape:cy="124.63013"
     inkscape:window-width="1871"
     inkscape:window-height="1251"
     inkscape:window-x="5763"
     inkscape:window-y="15"
     inkscape:window-maximized="0"
     inkscape:current-layer="svg40" /><title
     id="title2">Andes Logo.svg</title><style
     id="style4">svg {enable-background:new 0 0 400 245}</style><style
     id="style6">.st1{fill:#1c2e6c}</style><metadata
     id="metadata148"><rdf:RDF><cc:Work
         rdf:about=""><dc:title>Andes Logo.svg</dc:title></cc:Work></rdf:RDF></metadata><style
     type="text/css"
     id="style16209">
	.st0{fill:#E60019;}
	.st1{fill:#FFFFFF;}
</style><g
     id="g20794"
     transform="matrix(0.05339606,0,0,-0.05339606,13.421284,101.72299)"><path
       d="M 0,0 409.73,512.914 819.453,0 409.73,691.211 0,0"
       style="fill:#f2ba0c;fill-opacity:1;fill-rule:nonzero;stroke:none"
       id="path20796" /><path
       d="M 1172.25,691.016 804.277,433.746 588.18,691.211 735.68,382.254 661.66,305.77 l 38.551,-65 84.609,60.871 L 1035.21,0 854.488,365.063 1172.25,691.016"
       style="fill:#f2ba0c;fill-opacity:1;fill-rule:nonzero;stroke:none"
       id="path20798" /><path
       d="M 365.988,0.195313 637.434,195.566 600.18,242.215 Z"
       style="fill:#f2ba0c;fill-opacity:1;fill-rule:nonzero;stroke:none"
       id="path20800" /><path
       d="m 1306.7,217.305 -8.81,-22.246 h 17.58 z m 13.44,-33.321 h -26.91 l -3.69,-8.566 h -14.46 l 29.42,67.012 h 4.49 l 29.32,-67.012 h -14.47 l -3.7,8.566"
       style="fill:#13110f;fill-opacity:1;fill-rule:nonzero;stroke:none"
       id="path20802" /><path
       d="m 1413.69,210.516 h 11.27 c 6.29,0 9.97,3.8 9.97,9.472 0,5.598 -3.9,9.387 -9.97,9.387 h -11.27 z m 26.92,-35.098 -17.05,23.234 h -9.87 v -23.234 h -13.48 v 65.832 h 24.75 c 13.78,0 23.75,-8.594 23.75,-21.262 0,-8.367 -4.39,-15.164 -11.57,-18.73 l 18.67,-25.84 h -15.2"
       style="fill:#131110;fill-opacity:1;fill-rule:nonzero;stroke:none"
       id="path20804" /><path
       d="m 1529.35,229.07 h -21.02 v 12.18 H 1564 v -12.18 h -21.17 v -53.652 h -13.48 v 53.652"
       style="fill:#131110;fill-opacity:1;fill-rule:nonzero;stroke:none"
       id="path20806" /><path
       d="m 1625.78,241.25 h 13.48 v -65.832 h -13.48 v 65.832"
       style="fill:#131110;fill-opacity:1;fill-rule:nonzero;stroke:none"
       id="path20808" /><path
       d="m 1707.2,241.25 h 43.32 v -12.18 h -29.84 v -16.465 h 24.44 v -12.156 h -24.44 v -25.031 h -13.48 v 65.832"
       style="fill:#131110;fill-opacity:1;fill-rule:nonzero;stroke:none"
       id="path20810" /><path
       d="m 1813.53,241.25 h 13.48 v -65.832 h -13.48 v 65.832"
       style="fill:#131110;fill-opacity:1;fill-rule:nonzero;stroke:none"
       id="path20812" /><path
       d="m 1926.26,242.43 c 12.48,0 23.15,-6.075 29.06,-16.336 l -10.2,-7.199 c -4.66,7.375 -10.96,11.085 -18.86,11.085 -12.25,0 -21.24,-9.187 -21.24,-21.75 0,-12.566 8.99,-21.55 21.24,-21.55 7.9,0 14.2,3.691 18.86,11.074 l 10.2,-7.188 c -5.71,-10.273 -16.48,-16.347 -29.16,-16.347 -19.25,-0.403 -35.38,15.242 -35.02,34.109 -0.26,18.848 15.97,34.512 35.12,34.102"
       style="fill:#131110;fill-opacity:1;fill-rule:nonzero;stroke:none"
       id="path20814" /><path
       d="m 2019.72,241.25 h 13.48 v -65.832 h -13.48 v 65.832"
       style="fill:#131110;fill-opacity:1;fill-rule:nonzero;stroke:none"
       id="path20816" /><path
       d="m 2126.49,217.305 -8.77,-22.246 h 17.53 z m 13.48,-33.321 h -26.94 l -3.69,-8.566 h -14.49 l 29.45,67.012 h 4.5 l 29.31,-67.012 h -14.45 l -3.69,8.566"
       style="fill:#131110;fill-opacity:1;fill-rule:nonzero;stroke:none"
       id="path20818" /><path
       d="m 2220.02,241.25 h 13.48 v -53.672 h 28.8 v -12.16 h -42.28 v 65.832"
       style="fill:#131110;fill-opacity:1;fill-rule:nonzero;stroke:none"
       id="path20820" /><path
       d="m 2401.09,241.25 h 13.46 v -65.832 h -13.46 v 65.832"
       style="fill:#131110;fill-opacity:1;fill-rule:nonzero;stroke:none"
       id="path20822" /><path
       d="m 2538.57,241.25 v -67.031 h -4.5 L 2496,214.91 v -39.492 h -13.48 v 67.012 h 4.39 l 38.21,-40.489 v 39.309 h 13.45"
       style="fill:#131110;fill-opacity:1;fill-rule:nonzero;stroke:none"
       id="path20824" /><path
       d="m 2621.43,229.07 h -21.02 v 12.18 h 55.63 v -12.18 h -21.14 v -53.652 h -13.47 v 53.652"
       style="fill:#131110;fill-opacity:1;fill-rule:nonzero;stroke:none"
       id="path20826" /><path
       d="m 2717.85,241.25 h 44.31 v -12.18 h -30.82 v -13.367 h 22.62 v -11.465 h -22.62 v -16.66 h 31.99 v -12.16 h -45.48 v 65.832"
       style="fill:#131110;fill-opacity:1;fill-rule:nonzero;stroke:none"
       id="path20828" /><path
       d="m 2827.94,241.25 h 13.48 v -53.672 h 28.83 v -12.16 h -42.31 v 65.832"
       style="fill:#131110;fill-opacity:1;fill-rule:nonzero;stroke:none"
       id="path20830" /><path
       d="m 2933.13,241.25 h 13.49 v -53.672 h 28.82 v -12.16 h -42.31 v 65.832"
       style="fill:#131110;fill-opacity:1;fill-rule:nonzero;stroke:none"
       id="path20832" /><path
       d="m 3038.33,241.25 h 13.48 v -65.832 h -13.48 v 65.832"
       style="fill:#131110;fill-opacity:1;fill-rule:nonzero;stroke:none"
       id="path20834" /><path
       d="m 3151.18,242.43 c 11.6,0 21.34,-5.176 27.73,-14.258 l -9.57,-7.891 c -4.68,6.496 -10.76,9.699 -18.35,9.699 -12.57,0 -21.15,-9.082 -21.15,-21.652 0,-12.762 8.9,-22.051 21.96,-22.051 7.58,0 13.68,3.098 17.36,8.184 v 5.391 h -18.17 v 11.66 h 31.63 v -19.453 c -3,-5.293 -7.28,-9.668 -12.86,-12.969 -5.48,-3.281 -11.67,-4.871 -18.58,-4.871 -19.34,-0.403 -35.5,15.242 -35.21,34.109 -0.39,18.957 15.77,34.414 35.21,34.102"
       style="fill:#131110;fill-opacity:1;fill-rule:nonzero;stroke:none"
       id="path20836" /><path
       d="m 3247.23,241.25 h 44.28 v -12.18 h -30.81 v -13.367 h 22.64 v -11.465 h -22.64 v -16.66 h 32.02 v -12.16 h -45.49 v 65.832"
       style="fill:#131110;fill-opacity:1;fill-rule:nonzero;stroke:none"
       id="path20838" /><path
       d="m 3413.39,241.25 v -67.031 h -4.49 l -38.11,40.691 v -39.492 h -13.49 v 67.012 h 4.4 l 38.2,-40.489 v 39.309 h 13.49"
       style="fill:#131110;fill-opacity:1;fill-rule:nonzero;stroke:none"
       id="path20840" /><path
       d="m 3512.7,242.43 c 12.46,0 23.14,-6.075 29.02,-16.336 l -10.18,-7.199 c -4.68,7.375 -10.96,11.085 -18.84,11.085 -12.28,0 -21.25,-9.187 -21.25,-21.75 0,-12.566 8.97,-21.55 21.25,-21.55 7.88,0 14.16,3.691 18.84,11.074 l 10.18,-7.188 c -5.69,-10.273 -16.47,-16.347 -29.13,-16.347 -19.25,-0.403 -35.43,15.242 -35.01,34.109 -0.3,18.848 15.95,34.512 35.12,34.102"
       style="fill:#131110;fill-opacity:1;fill-rule:nonzero;stroke:none"
       id="path20842" /><path
       d="m 3606.12,241.25 h 44.31 v -12.18 h -30.82 v -13.367 h 22.61 v -11.465 h -22.61 v -16.66 h 31.99 v -12.16 h -45.48 v 65.832"
       style="fill:#131110;fill-opacity:1;fill-rule:nonzero;stroke:none"
       id="path20844" /><path
       d="m 2381.28,308.855 c -1.7,0 -2.59,0.86 -2.59,2.571 v 203.012 c 0,1.742 0.89,2.574 2.59,2.574 h 34.25 c 1.71,0 2.6,-0.832 2.6,-2.574 v -163.59 c 0,-1.731 0.83,-2.567 2.53,-2.567 h 161.66 c 1.49,0 2.06,-0.781 1.65,-2.297 l -11.41,-35.964 c -0.36,-0.793 -0.93,-1.165 -1.7,-1.165 h -189.58"
       style="fill:#131110;fill-opacity:1;fill-rule:nonzero;stroke:none"
       id="path20846" /><path
       d="m 1424.13,515.883 c -0.39,0.742 -1.06,1.129 -2.02,1.129 h -42.82 c -0.56,0 -1.22,-0.387 -1.99,-1.129 L 1275.35,311.992 c -0.37,-0.754 -0.37,-1.504 0,-2.277 0.36,-0.762 1.03,-1.152 2.01,-1.152 h 39.12 c 0.74,0 1.42,0.488 1.99,1.457 l 81.67,163.015 c 0.56,0.973 1.03,0.973 1.45,0 0,0 43.51,-87.023 43.24,-87.512 -0.3,-0.468 38.39,-75.503 38.39,-75.503 0.37,-0.969 1.06,-1.457 2.01,-1.457 h 39.15 c 0.73,0 1.34,0.39 1.84,1.152 0.47,0.773 0.51,1.523 0.12,2.277 l -102.21,203.891"
       style="fill:#131110;fill-opacity:1;fill-rule:nonzero;stroke:none"
       id="path20848" /><path
       d="m 1690.52,516.734 c -0.15,0.184 -0.45,0.278 -0.86,0.278 h -53.38 c -0.54,0 -0.92,-0.235 -1.14,-0.723 -0.19,-0.453 -0.09,-0.894 0.3,-1.262 l 99.44,-95.238 28.43,27.281 -72.79,69.664"
       style="fill:#131110;fill-opacity:1;fill-rule:nonzero;stroke:none"
       id="path20850" /><path
       d="m 1909.84,515.027 c 0.39,0.368 0.48,0.809 0.32,1.262 -0.22,0.488 -0.52,0.723 -0.89,0.723 h -53.64 c -0.41,0 -0.6,-0.094 -0.6,-0.278 l -56.91,-54.488 v 0 l -55.02,-52.851 v -0.02 l -102.53,-98.527 c -0.39,-0.36 -0.49,-0.801 -0.29,-1.278 0.19,-0.468 0.49,-0.715 0.86,-0.715 h 53.67 c 0.2,0 0.38,0.098 0.57,0.293 l 76.27,73.106 c 0.37,0.379 0.73,0.562 1.15,0.562 0.38,0 0.74,-0.183 1.11,-0.562 l 75.95,-73.106 c 0.2,0 0.35,-0.046 0.45,-0.144 0.1,-0.109 0.25,-0.149 0.4,-0.149 h 53.43 c 0.57,0 0.96,0.247 1.15,0.715 0.18,0.477 0.08,0.918 -0.3,1.278 l -102.51,98.515 c -0.96,0.774 -0.96,1.621 0,2.575 l 107.36,103.089"
       style="fill:#131110;fill-opacity:1;fill-rule:nonzero;stroke:none"
       id="path20852" /><path
       d="m 2124.45,477.336 h 114.33 c 0.78,0 1.41,0.281 1.83,0.828 0.47,0.586 0.55,1.246 0.19,2.031 l -11.18,35.102 c -0.37,0.957 -1.04,1.437 -1.96,1.437 h -191.31 c -2.32,0 -3.44,-1.043 -3.44,-3.144 v -36.254 h 42.53 49.01"
       style="fill:#131110;fill-opacity:1;fill-rule:nonzero;stroke:none"
       id="path20854" /><path
       d="m 2238.78,348.828 h -163.34 c -0.96,0 -1.69,0.336 -2.29,1 -0.55,0.676 -0.83,1.485 -0.83,2.445 v 39.102 c 0,1.316 0.63,2.004 2,2.004 h 110.78 c 1.16,0 1.92,0.574 2.28,1.719 l 11.16,35.117 c 0.16,0.578 0.06,1.148 -0.33,1.719 -0.37,0.562 -0.93,0.855 -1.69,0.855 h -72.07 -50.13 -41.41 V 312.852 c 0,-2.102 1.12,-3.137 3.44,-3.137 h 191.31 c 0.92,0 1.59,0.469 1.96,1.426 l 11.18,35.113 c 0.36,0.582 0.28,1.156 -0.19,1.73 -0.42,0.586 -1.05,0.844 -1.83,0.844"
       style="fill:#131110;fill-opacity:1;fill-rule:nonzero;stroke:none"
       id="path20856" /><path
       d="m 2804.02,477.336 h 114.35 c 0.77,0 1.39,0.281 1.85,0.828 0.47,0.586 0.55,1.246 0.15,2.031 l -11.14,35.102 c -0.39,0.957 -1.04,1.437 -1.98,1.437 h -191.34 c -2.31,0 -3.43,-1.043 -3.43,-3.144 v -36.254 h 42.56 48.98"
       style="fill:#131110;fill-opacity:1;fill-rule:nonzero;stroke:none"
       id="path20858" /><path
       d="m 2918.37,348.828 h -163.33 c -0.96,0 -1.73,0.336 -2.3,1 -0.55,0.676 -0.85,1.485 -0.85,2.445 v 39.102 c 0,1.316 0.66,2.004 2.01,2.004 h 110.79 c 1.13,0 1.92,0.574 2.28,1.719 l 11.14,35.117 c 0.2,0.578 0.06,1.148 -0.29,1.719 -0.36,0.562 -0.93,0.855 -1.69,0.855 h -72.11 -50.12 -41.42 V 312.852 c 0,-2.102 1.12,-3.137 3.43,-3.137 h 191.34 c 0.94,0 1.59,0.469 1.98,1.426 l 11.14,35.113 c 0.4,0.582 0.32,1.156 -0.15,1.73 -0.46,0.586 -1.08,0.844 -1.85,0.844"
       style="fill:#131110;fill-opacity:1;fill-rule:nonzero;stroke:none"
       id="path20860" /><path
       d="m 3549.15,515.883 c -0.39,0.742 -1.04,1.129 -2.04,1.129 h -42.79 c -0.57,0 -1.22,-0.387 -2,-1.129 L 3400.37,311.992 c -0.4,-0.754 -0.4,-1.504 0,-2.277 0.37,-0.762 1.04,-1.152 2.01,-1.152 h 39.09 c 0.78,0 1.46,0.488 2.03,1.457 l 81.66,163.015 c 0.56,0.973 1.04,0.973 1.43,0 0,0 43.54,-87.023 43.24,-87.512 -0.27,-0.468 38.41,-75.503 38.41,-75.503 0.36,-0.969 1.06,-1.457 2,-1.457 h 39.12 c 0.77,0 1.35,0.39 1.84,1.152 0.47,0.773 0.55,1.523 0.16,2.277 l -102.21,203.891"
       style="fill:#131110;fill-opacity:1;fill-rule:nonzero;stroke:none"
       id="path20862" /><path
       d="m 3281.89,311.141 -69.96,76.23 c -0.58,0.59 -0.48,0.871 0.27,0.871 9.17,0.192 17.64,1.86 25.56,5.004 7.91,3.129 14.71,7.461 20.44,12.981 5.69,5.531 10.17,12.003 13.39,19.421 3.25,7.422 4.86,15.528 4.86,24.262 0,8.567 -1.67,16.891 -5,25 -3.34,8.098 -7.9,15.274 -13.7,21.551 -5.81,6.289 -12.66,11.273 -20.58,14.988 -7.88,3.711 -16.48,5.563 -25.82,5.563 h -160.49 c -1.15,0 -1.73,-0.563 -1.73,-1.715 v -37.961 h 40.27 c 0.27,0.125 0.48,0.281 0.83,0.281 h 121.12 c 3.24,0 6.35,-0.777 9.39,-2.281 3.08,-1.539 5.82,-3.523 8.31,-6.012 2.48,-2.465 4.44,-5.363 5.85,-8.691 1.45,-3.34 2.16,-6.918 2.16,-10.723 0,-3.812 -0.78,-7.121 -2.28,-9.988 -1.56,-2.852 -3.55,-5.192 -6.03,-6.984 -2.48,-1.817 -5.22,-3.153 -8.27,-4.004 -3.02,-0.86 -6.09,-1.278 -9.13,-1.278 h -64.99 -56.13 -41.1 V 310.848 c 0,-1.133 0.58,-1.7 1.73,-1.7 h 36 c 1.11,0 1.69,0.567 1.69,1.7 v 75.679 c 0,1.129 0.57,1.715 1.68,1.715 h 70.01 c 0.37,0 0.78,-0.211 1.13,-0.586 l 71.97,-78.215 c 0.38,-0.39 0.74,-0.586 1.14,-0.586 h 46.25 c 0.58,0 1.02,0.293 1.31,0.86 0.28,0.586 0.23,1.035 -0.15,1.426"
       style="fill:#131110;fill-opacity:1;fill-rule:nonzero;stroke:none"
       id="path20864" /></g></svg>
