<?xml version="1.0" encoding="UTF-8" standalone="no"?>
<!-- Created with Inkscape (http://www.inkscape.org/) -->

<svg
   xmlns:dc="http://purl.org/dc/elements/1.1/"
   xmlns:cc="http://creativecommons.org/ns#"
   xmlns:rdf="http://www.w3.org/1999/02/22-rdf-syntax-ns#"
   xmlns:svg="http://www.w3.org/2000/svg"
   xmlns="http://www.w3.org/2000/svg"
   xmlns:sodipodi="http://sodipodi.sourceforge.net/DTD/sodipodi-0.dtd"
   xmlns:inkscape="http://www.inkscape.org/namespaces/inkscape"
   version="1.1"
   width="429.12271"
   height="94.834862"
   id="svg2"
   xml:space="preserve"
   inkscape:version="0.91 r13725"
   sodipodi:docname="Minres_logo.svg"><sodipodi:namedview
     pagecolor="#ffffff"
     bordercolor="#666666"
     borderopacity="1"
     objecttolerance="10"
     gridtolerance="10"
     guidetolerance="10"
     inkscape:pageopacity="0"
     inkscape:pageshadow="2"
     inkscape:window-width="1284"
     inkscape:window-height="967"
     id="namedview16"
     showgrid="false"
     fit-margin-top="0.2"
     fit-margin-left="0.2"
     fit-margin-right="0.2"
     fit-margin-bottom="0.2"
     inkscape:zoom="0.68"
     inkscape:cx="222.87347"
     inkscape:cy="20.834587"
     inkscape:window-x="0"
     inkscape:window-y="0"
     inkscape:window-maximized="0"
     inkscape:current-layer="svg2" /><metadata
     id="metadata8"><rdf:RDF><cc:Work
         rdf:about=""><dc:format>image/svg+xml</dc:format><dc:type
           rdf:resource="http://purl.org/dc/dcmitype/StillImage" /><dc:title></dc:title></cc:Work></rdf:RDF></metadata><defs
     id="defs6"><clipPath
       id="clipPath16"><path
         d="M 0,792 612,792 612,0 0,0 0,792 Z"
         id="path18"
         inkscape:connector-curvature="0" /></clipPath></defs><g
     transform="matrix(1.25,0,0,-1.25,-159.62653,569.00027)"
     id="g10"><g
       id="g12"><g
         clip-path="url(#clipPath16)"
         id="g14"><g
           transform="translate(145.6455,441.9395)"
           id="g20"><path
             d="m 0,0 c -2.297,-0.438 -3.543,-2.073 -2.708,-3.725 0.833,-1.65 3.504,-2.643 5.889,-2.144 2.386,0.496 3.511,2.247 2.59,3.837 C 4.85,-0.44 2.3,0.437 0,0 m 18.222,-38.224 c -2.52,-0.695 -3.862,-3.233 -2.939,-5.662 0.921,-2.428 3.749,-3.782 6.254,-3.03 2.507,0.752 3.755,3.28 2.849,5.651 -0.909,2.373 -3.643,3.736 -6.164,3.041 m -7.791,-15.092 c -2.653,-0.799 -4.097,-3.465 -3.198,-5.932 0.9,-2.467 3.776,-3.777 6.402,-2.953 2.625,0.826 4.025,3.453 3.156,5.892 -0.87,2.44 -3.705,3.791 -6.36,2.993 M -14.667,4.308 c -2.247,-0.506 -3.595,-2.009 -2.96,-3.428 0.631,-1.417 3.1,-2.169 5.458,-1.603 2.358,0.564 3.623,2.184 2.878,3.543 -0.745,1.362 -3.126,1.993 -5.376,1.488 m 29.536,5.633 c 1.911,0.108 2.575,0.953 1.58,1.794 -0.997,0.843 -3.211,1.41 -5.037,1.363 C 9.59,13.047 8.774,12.347 9.687,11.444 10.595,10.542 12.96,9.829 14.869,9.941 M 9.801,3.401 C 11.96,3.698 12.856,4.99 11.897,6.208 10.937,7.427 8.55,8.16 6.479,7.926 4.411,7.689 3.37,6.524 4.243,5.242 5.113,3.963 7.645,3.102 9.801,3.401 m 46.91,-31.865 c -1.455,-0.303 -2.077,-2.246 -1.317,-4.325 0.756,-2.078 2.553,-3.416 3.936,-3.012 1.383,0.401 1.892,2.309 1.205,4.288 -0.688,1.98 -2.37,3.353 -3.824,3.049 M 32.809,-43.562 c 2.284,0.685 3.364,3.086 2.488,5.379 -0.878,2.29 -3.406,3.664 -5.719,3.053 -2.311,-0.61 -3.51,-3.03 -2.603,-5.397 0.905,-2.367 3.552,-3.719 5.834,-3.035 M 15.981,8.776 C 14.066,8.66 13.219,7.651 14.189,6.438 c 0.967,-1.211 3.445,-2.116 5.432,-1.939 1.987,0.174 2.681,1.319 1.644,2.469 -1.039,1.154 -3.363,1.924 -5.284,1.808 m 52.691,-47.965 c -0.45,1.883 -1.642,3.189 -2.719,2.873 -1.076,-0.312 -1.567,-2.209 -1.035,-4.19 0.53,-1.982 1.817,-3.21 2.812,-2.795 0.996,0.414 1.391,2.231 0.942,4.112 m -16.008,-1.2 c -1.692,-0.512 -2.562,-2.753 -1.863,-4.956 0.696,-2.206 2.642,-3.456 4.264,-2.848 1.623,0.611 2.367,2.773 1.74,4.881 -0.629,2.107 -2.448,3.437 -4.141,2.923 M 33.766,-46.21 c -2.277,-0.694 -3.514,-3.216 -2.69,-5.597 0.821,-2.379 3.352,-3.656 5.579,-2.892 2.229,0.763 3.354,3.22 2.583,5.529 -0.772,2.31 -3.191,3.652 -5.472,2.96 m 12.82,-5.048 c 1.94,0.695 2.877,3.014 2.174,5.23 -0.706,2.214 -2.838,3.55 -4.837,2.942 -1.998,-0.609 -3.061,-3.001 -2.294,-5.303 0.764,-2.3 3.02,-3.564 4.957,-2.869 m 0.76,-2.537 c -1.93,-0.703 -3.039,-3.148 -2.4,-5.389 0.637,-2.244 2.721,-3.369 4.578,-2.587 1.859,0.785 2.845,3.117 2.284,5.281 -0.567,2.162 -2.53,3.398 -4.462,2.695 m -4.322,13.255 c 2.005,0.601 2.893,2.849 2.064,5.043 -0.829,2.197 -3.101,3.576 -5.152,3.062 -2.046,-0.509 -3.065,-2.785 -2.191,-5.07 0.873,-2.284 3.275,-3.635 5.279,-3.035 M 38.74,-9.321 c 1.831,0.21 2.39,1.756 1.338,3.396 -1.055,1.641 -3.323,2.804 -5.151,2.663 -1.823,-0.141 -2.526,-1.591 -1.476,-3.301 1.049,-1.709 3.462,-2.971 5.289,-2.758 m 0.159,-20.585 c 2.054,0.502 2.893,2.617 1.963,4.721 -0.936,2.102 -3.31,3.458 -5.385,3.04 -2.072,-0.417 -3.05,-2.514 -2.093,-4.702 0.954,-2.188 3.465,-3.561 5.515,-3.059 m 4.604,34.735 c 1.394,-0.097 1.554,0.713 0.423,1.709 -1.134,0.997 -3.128,1.827 -4.515,1.961 -1.386,0.136 -1.656,-0.51 -0.53,-1.547 1.125,-1.034 3.23,-2.031 4.622,-2.123 m 5.453,-35.048 c -1.757,-0.407 -2.579,-2.525 -1.753,-4.71 0.822,-2.187 2.936,-3.53 4.635,-3.028 1.7,0.503 2.392,2.584 1.627,4.676 -0.766,2.09 -2.753,3.468 -4.509,3.062 m -5.929,5.486 c 0.929,-2.094 3.182,-3.472 4.944,-3.073 1.764,0.396 2.405,2.345 1.519,4.349 -0.89,2.003 -3.011,3.37 -4.816,3.062 -1.8,-0.308 -2.577,-2.242 -1.647,-4.338 M 28.584,5.05 c 1.796,0.067 2.289,1.077 1.197,2.168 -1.095,1.093 -3.326,1.89 -5.071,1.88 C 22.967,9.084 22.324,8.22 23.371,7.072 24.413,5.927 26.793,4.981 28.584,5.05 m -0.075,-37.548 c 2.316,0.602 3.351,2.877 2.395,5.073 -0.956,2.195 -3.55,3.534 -5.867,3.006 -2.316,-0.527 -3.479,-2.78 -2.519,-5.049 0.959,-2.27 3.679,-3.633 5.991,-3.03 m -3.991,30.136 c 2.045,0.247 2.769,1.679 1.713,3.126 -1.06,1.449 -3.461,2.411 -5.457,2.232 -1.992,-0.185 -2.869,-1.496 -1.859,-3.008 1.006,-1.511 3.561,-2.596 5.603,-2.35 m 6.733,-4.461 c -1.049,1.717 -3.489,2.855 -5.539,2.601 -2.047,-0.255 -2.955,-1.858 -1.931,-3.647 1.02,-1.787 3.611,-3.021 5.683,-2.695 2.077,0.324 2.834,2.022 1.787,3.741 m 10.476,5.715 c 1.598,0.036 1.941,1.199 0.85,2.517 C 41.48,2.732 39.36,3.748 37.766,3.766 36.175,3.783 35.699,2.75 36.79,1.375 37.879,0 40.131,-1.147 41.727,-1.108 M 28.397,0.94 c 1.061,-1.44 3.478,-2.561 5.303,-2.424 1.824,0.133 2.347,1.421 1.262,2.8 C 33.871,2.698 31.6,3.694 29.802,3.621 28.005,3.547 27.335,2.384 28.397,0.94 M 14.372,-3.794 c 2.237,0.369 3.164,1.956 2.165,3.473 -1.003,1.519 -3.502,2.444 -5.668,2.14 C 8.703,1.514 7.632,0.044 8.563,-1.54 c 0.93,-1.582 3.574,-2.623 5.809,-2.254 m 4.733,-8.563 c 2.292,0.441 3.252,2.302 2.237,4.097 -1.019,1.795 -3.595,2.896 -5.84,2.521 -2.241,-0.376 -3.342,-2.14 -2.372,-4.002 0.968,-1.863 3.685,-3.059 5.975,-2.616"
             id="path22"
             style="fill:#aeb6bc;fill-opacity:1;fill-rule:nonzero;stroke:none"
             inkscape:connector-curvature="0" /></g><g
           transform="translate(174.3657,425.0669)"
           id="g24"><path
             d="M 0,0 C -1.005,2.018 -0.066,3.887 2.005,4.218 4.082,4.548 6.51,3.276 7.519,1.337 8.524,-0.603 7.728,-2.534 5.653,-2.94 3.578,-3.35 1.004,-2.017 0,0"
             id="path26"
             style="fill:#39bed8;fill-opacity:1;fill-rule:evenodd;stroke:none"
             inkscape:connector-curvature="0" /></g><g
           transform="translate(467.5234,440.4209)"
           id="g28"><path
             d="m 0,0 -0.41,0 0,1.014 c 0.097,0.02 0.234,0.039 0.469,0.039 0.586,0 0.779,-0.215 0.779,-0.527 C 0.838,0.136 0.449,0 0,0 m 0.838,-0.234 0,0.039 c 0.351,0.117 0.644,0.37 0.644,0.78 0,0.292 -0.136,0.546 -0.332,0.683 -0.214,0.155 -0.486,0.253 -1.033,0.253 -0.449,0 -0.799,-0.039 -1.131,-0.098 l 0,-3.256 0.604,0 0,1.365 0.39,0 c 0.469,0 0.684,-0.156 0.762,-0.507 0.078,-0.448 0.154,-0.741 0.252,-0.858 l 0.625,0 c -0.078,0.117 -0.137,0.312 -0.234,0.819 -0.098,0.41 -0.254,0.663 -0.547,0.78 M 0.176,-2.691 c -1.444,0 -2.516,1.131 -2.516,2.574 0,1.404 1.072,2.555 2.477,2.555 l 0.019,0 c 1.424,0 2.457,-1.151 2.457,-2.575 0,-1.423 -1.033,-2.573 -2.437,-2.554 m 0,5.674 -0.02,0 c -1.775,0 -3.177,-1.364 -3.177,-3.1 0,-1.775 1.402,-3.14 3.177,-3.14 1.776,0 3.16,1.365 3.16,3.14 0,1.736 -1.384,3.1 -3.14,3.1 m -7.393,-49.609 -4.265,1 0,1.026 c 0.322,0.418 1.025,1.066 2.429,1.066 1.5,0 2.688,-0.486 3.633,-0.89 l 0,1.863 c -0.932,0.5 -2.094,0.783 -3.633,0.783 -2.418,0 -4.185,-1.215 -4.185,-2.767 l 0,-1.352 c 0,-1.174 1.228,-1.485 1.929,-1.661 l 4.268,-1 0,-1.066 c -0.324,-0.418 -1.025,-1.066 -2.43,-1.066 -1.5,0 -2.687,0.486 -3.633,0.89 l 0,-1.863 c 0.932,-0.5 2.094,-0.783 3.633,-0.783 2.416,0 4.186,1.215 4.186,2.767 l 0,1.407 c 0,1.16 -1.242,1.484 -1.932,1.646 m -15.525,3.862 0,-9.575 7.035,0 0,1.756 -5.268,0 0,2.594 4.389,0 c 0.486,0 0.879,0.39 0.879,0.877 0,0.486 -0.393,0.879 -0.879,0.879 l -4.389,0 0,2.592 5.268,0 0,1.756 -6.145,0 c -0.486,0 -0.89,-0.393 -0.89,-0.879 m -5.131,-8.805 c 0,-0.485 0.393,-0.877 0.877,-0.877 0.486,0 0.892,0.392 0.892,0.877 l 0,9.684 -1.769,0 0,-9.684 z m -7.531,4.457 c 0,-0.487 0.39,-0.877 0.877,-0.877 l 1.662,0 0,-2.35 c -0.528,-0.176 -1.311,-0.351 -2.256,-0.351 -1.404,0 -2.108,0.648 -2.418,1.066 l 0,5.024 c 0.31,0.418 1.014,1.066 2.418,1.066 1.498,0 2.687,-0.486 3.633,-0.89 l 0.013,1.863 c -0.945,0.5 -2.093,0.783 -3.646,0.783 -2.404,0 -4.186,-1.215 -4.186,-2.767 l 0,-5.134 c 0,-1.552 1.782,-2.767 4.186,-2.767 1.525,0 3.092,0.338 4.01,1 l 0,5.213 -3.416,0 c -0.487,0 -0.877,-0.393 -0.877,-0.879 m -8.828,-2.512 c -0.311,-0.418 -1.014,-1.066 -2.432,-1.066 -1.404,0 -2.106,0.648 -2.416,1.066 l 0,5.024 c 0.31,0.418 1.012,1.066 2.416,1.066 1.418,0 2.121,-0.648 2.432,-1.066 l 0,-5.024 z m -2.432,7.846 c -2.402,0 -4.186,-1.215 -4.186,-2.767 l 0,-5.134 c 0,-1.552 1.784,-2.767 4.186,-2.767 2.418,0 4.187,1.215 4.187,2.767 l 0,5.134 c 0,1.552 -1.769,2.767 -4.187,2.767 m -12.299,-0.877 c 0,0.486 -0.391,0.877 -0.877,0.877 -0.486,0 -0.89,-0.391 -0.89,-0.877 l 0,-9.684 7.521,0 0,1.756 -5.754,0 0,7.928 z m -6.693,-6.969 c -0.311,-0.418 -1.014,-1.066 -2.432,-1.066 -1.404,0 -2.105,0.648 -2.416,1.066 l 0,5.024 c 0.311,0.418 1.012,1.066 2.416,1.066 1.418,0 2.121,-0.648 2.432,-1.066 l 0,-5.024 z m -2.432,7.846 c -2.402,0 -4.185,-1.215 -4.185,-2.767 l 0,-5.134 c 0,-1.552 1.783,-2.767 4.185,-2.767 2.418,0 4.188,1.215 4.188,2.767 l 0,5.134 c 0,1.552 -1.77,2.767 -4.188,2.767 m -9.111,-7.211 -5.266,6.86 c -0.527,0.689 -1.58,0.284 -1.58,-0.526 l 0,-8.914 c 0,-0.485 0.391,-0.877 0.877,-0.877 0.486,0 0.891,0.392 0.891,0.877 l 0,6.32 5.254,-6.859 c 0.175,-0.231 0.445,-0.338 0.701,-0.338 0.486,0 0.879,0.392 0.879,0.877 l 0,9.684 -1.756,0 0,-7.104 z m -11.772,2.756 -5.172,0 0,3.578 c 0,0.486 -0.392,0.877 -0.878,0.877 -0.487,0 -0.891,-0.391 -0.891,-0.877 l 0,-9.684 1.769,0 0,4.35 5.172,0 0,-3.58 c 0,-0.485 0.391,-0.877 0.877,-0.877 0.487,0 0.891,0.392 0.891,0.877 l 0,9.684 -1.768,0 0,-4.348 z m -17.592,1.688 0,-5.134 c 0,-1.552 1.782,-2.767 4.186,-2.767 1.553,0 2.701,0.283 3.647,0.783 l 0,1.863 c -0.946,-0.404 -2.149,-0.89 -3.647,-0.89 -1.404,0 -2.107,0.648 -2.418,1.066 l 0,5.024 c 0.311,0.418 1.014,1.066 2.418,1.066 1.498,0 2.701,-0.486 3.647,-0.89 l 0,1.863 c -0.946,0.5 -2.094,0.783 -3.647,0.783 -2.404,0 -4.186,-1.215 -4.186,-2.767 m -9.869,1.781 0,-9.575 7.036,0 0,1.756 -5.266,0 0,2.594 4.389,0 c 0.486,0 0.877,0.39 0.877,0.877 0,0.486 -0.391,0.879 -0.877,0.879 l -4.389,0 0,2.592 5.266,0 0,1.756 -6.145,0 c -0.486,0 -0.891,-0.393 -0.891,-0.879 m -11.111,-0.877 3.471,0 0,-7.928 c 0,-0.485 0.392,-0.877 0.877,-0.877 0.5,0 0.879,0.392 0.879,0.877 l 0,7.928 3.457,0 0,1.756 -8.684,0 0,-1.756 z m 121.424,27.448 c -0.938,0.938 -2.043,1.675 -3.317,2.211 -1.24,0.536 -2.578,0.804 -4.019,0.804 l -18.492,0 c -1.407,0.1 -2.547,0.636 -3.418,1.608 -0.436,0.469 -0.787,0.988 -1.055,1.558 -0.234,0.602 -0.351,1.239 -0.351,1.909 0,0.703 0.117,1.34 0.351,1.909 0.268,0.604 0.619,1.14 1.055,1.608 0.906,0.972 2.045,1.509 3.418,1.609 l 26.687,0 0,5.426 -26.738,0 c -1.473,0 -2.848,-0.284 -4.121,-0.854 -1.238,-0.536 -2.344,-1.273 -3.317,-2.21 -0.97,-0.972 -1.74,-2.094 -2.31,-3.367 -0.537,-1.273 -0.805,-2.647 -0.805,-4.121 0,-1.44 0.268,-2.797 0.805,-4.07 0.57,-1.273 1.34,-2.395 2.31,-3.367 0.973,-0.971 2.079,-1.725 3.317,-2.261 1.273,-0.536 2.648,-0.804 4.121,-0.804 l 18.543,0 c 1.373,0 2.529,-0.486 3.467,-1.458 0.97,-0.937 1.457,-2.093 1.457,-3.467 0,-0.67 -0.133,-1.306 -0.403,-1.909 -0.234,-0.569 -0.586,-1.089 -1.054,-1.558 -0.436,-0.435 -0.955,-0.787 -1.559,-1.055 -0.601,-0.235 -1.238,-0.353 -1.908,-0.353 l -26.94,0 0,-5.426 26.94,0 c 1.441,0 2.779,0.268 4.019,0.804 1.274,0.536 2.379,1.273 3.317,2.212 0.937,0.938 1.676,2.025 2.211,3.266 0.537,1.273 0.804,2.612 0.804,4.019 0,1.441 -0.267,2.781 -0.804,4.02 -0.535,1.274 -1.274,2.379 -2.211,3.317 m -41.17,-12.212 -25.074,0 c -1.44,0 -2.664,0.504 -3.668,1.508 -0.469,0.47 -0.838,1.006 -1.106,1.609 -0.267,0.637 -0.402,1.323 -0.402,2.06 l 0,5.778 30.25,0 0,5.428 -30.25,0 0,3.869 c 0,0.737 0.135,1.406 0.402,2.01 0.268,0.637 0.637,1.189 1.106,1.658 1.004,1.005 2.228,1.508 3.668,1.508 l 25.074,0 0,5.426 -25.426,0 c -1.473,0 -2.848,-0.267 -4.121,-0.803 -1.271,-0.536 -2.379,-1.29 -3.316,-2.261 -0.971,-0.972 -1.741,-2.094 -2.311,-3.367 -0.537,-1.273 -0.805,-2.647 -0.805,-4.121 l 0,-15.175 c 0,-1.474 0.268,-2.847 0.805,-4.121 0.57,-1.273 1.34,-2.395 2.311,-3.367 0.937,-0.971 2.045,-1.725 3.316,-2.261 1.273,-0.536 2.648,-0.804 4.121,-0.804 l 25.426,0 0,5.426 z m -50.168,15.579 c -0.604,-0.268 -1.258,-0.403 -1.961,-0.403 l -17.412,0 0,-5.427 17.715,0 c 1.373,-0.066 2.511,-0.602 3.418,-1.608 0.937,-0.937 1.406,-2.11 1.406,-3.517 l 0,-10.05 5.777,0 0,10.1 c 0,1.542 -0.318,2.982 -0.953,4.322 -0.637,1.34 -1.492,2.495 -2.562,3.467 1.07,0.971 1.925,2.128 2.562,3.467 0.635,1.34 0.953,2.797 0.953,4.372 0,1.474 -0.283,2.831 -0.853,4.07 -0.535,1.274 -1.289,2.396 -2.262,3.367 -0.971,0.971 -2.094,1.725 -3.365,2.261 -1.24,0.57 -2.598,0.854 -4.07,0.854 l -18.342,0 c -1.475,0 -2.848,-0.284 -4.121,-0.854 -1.274,-0.536 -2.379,-1.29 -3.317,-2.261 -0.97,-0.971 -1.742,-2.093 -2.31,-3.367 -0.537,-1.239 -0.805,-2.596 -0.805,-4.07 l 0,-25.728 5.729,0 0,25.728 c 0.066,1.441 0.585,2.646 1.556,3.618 0.471,0.469 1.006,0.838 1.61,1.106 0.636,0.268 1.306,0.402 2.009,0.402 l 17.637,0 c 0.703,0 1.357,-0.134 1.961,-0.402 0.637,-0.268 1.189,-0.637 1.658,-1.106 1.004,-1.005 1.508,-2.211 1.508,-3.618 0,-1.474 -0.504,-2.68 -1.508,-3.618 -0.469,-0.469 -1.021,-0.838 -1.658,-1.105 m -41.477,-12.512 c 0,-0.871 -0.252,-1.592 -0.754,-2.162 -0.201,-0.234 -0.486,-0.435 -0.853,-0.602 -0.402,-0.168 -0.82,-0.252 -1.258,-0.252 -0.301,0 -0.586,0.067 -0.853,0.201 -0.235,0.135 -0.452,0.302 -0.653,0.502 -0.168,0.202 -0.318,0.402 -0.453,0.604 -0.135,0.235 -0.252,0.419 -0.351,0.552 l -0.553,1.005 c -0.168,0.368 -0.385,0.788 -0.652,1.257 -0.069,0.066 -0.135,0.184 -0.202,0.352 -0.068,0.201 -0.185,0.435 -0.351,0.703 -0.471,0.905 -1.106,2.161 -1.91,3.769 -0.772,1.641 -1.592,3.333 -2.463,5.075 -0.871,1.775 -1.707,3.467 -2.512,5.076 -0.805,1.608 -1.424,2.863 -1.859,3.768 -0.369,0.737 -0.721,1.407 -1.055,2.01 -0.336,0.604 -0.672,1.156 -1.006,1.658 -0.537,0.805 -1.055,1.457 -1.557,1.96 -0.804,0.871 -1.726,1.474 -2.765,1.809 -0.971,0.335 -2.077,0.502 -3.316,0.502 -1.239,0 -2.378,-0.234 -3.417,-0.703 -1.005,-0.435 -1.876,-1.038 -2.612,-1.809 -1.508,-1.607 -2.262,-3.601 -2.262,-5.979 l 0,-27.789 5.778,0 0,27.789 c 0,0.871 0.252,1.591 0.754,2.16 0.235,0.235 0.535,0.436 0.904,0.603 0.403,0.168 0.805,0.252 1.207,0.252 0.569,0 1.038,-0.219 1.407,-0.654 0.368,-0.402 0.636,-0.736 0.803,-1.005 0.168,-0.268 0.335,-0.569 0.503,-0.904 0.202,-0.335 0.385,-0.687 0.553,-1.056 0.202,-0.402 0.469,-0.955 0.803,-1.658 0.336,-0.703 0.721,-1.524 1.157,-2.462 0.468,-0.904 0.955,-1.893 1.457,-2.965 0.537,-1.039 1.072,-2.094 1.609,-3.165 0.535,-1.073 1.039,-2.127 1.506,-3.167 0.504,-1.038 0.972,-1.993 1.408,-2.863 0.436,-0.871 0.805,-1.625 1.106,-2.262 0.333,-0.637 0.585,-1.105 0.753,-1.406 0.133,-0.269 0.284,-0.587 0.452,-0.955 0.168,-0.335 0.369,-0.704 0.603,-1.106 0.334,-0.57 0.721,-1.156 1.156,-1.76 0.469,-0.601 1.055,-1.171 1.758,-1.707 0.637,-0.503 1.424,-0.905 2.363,-1.207 0.469,-0.168 0.954,-0.3 1.457,-0.401 0.502,-0.067 1.04,-0.101 1.608,-0.101 1.172,0 2.262,0.217 3.266,0.653 1.039,0.47 1.925,1.089 2.664,1.859 0.769,0.772 1.355,1.658 1.757,2.664 0.436,1.038 0.655,2.144 0.655,3.317 l 0,27.787 -5.78,0 0,-27.787 z m -44.641,-8.493 5.729,0 0,36.28 -5.729,0 0,-36.28 z m -8.311,33.216 c -0.972,0.971 -2.093,1.725 -3.367,2.261 -1.273,0.536 -2.646,0.803 -4.121,0.803 l -7.125,0 c -1.507,0 -2.931,-0.301 -4.271,-0.904 -1.307,-0.569 -2.445,-1.373 -3.417,-2.412 -0.971,1.039 -2.111,1.843 -3.417,2.412 -1.307,0.603 -2.714,0.904 -4.221,0.904 l -7.176,0 c -1.474,0 -2.848,-0.267 -4.12,-0.803 -1.273,-0.536 -2.379,-1.29 -3.317,-2.261 -0.971,-0.972 -1.742,-2.094 -2.312,-3.367 -0.535,-1.273 -0.803,-2.647 -0.803,-4.121 l 0,-25.728 5.728,0 0,25.678 c 0,0.737 0.134,1.406 0.402,2.01 0.268,0.637 0.636,1.189 1.106,1.658 1.004,1.005 2.227,1.508 3.668,1.508 l 6.422,0 c 1.441,0 2.663,-0.503 3.668,-1.508 1.005,-1.005 1.508,-2.228 1.508,-3.668 l 0,-25.678 5.728,0 0,25.678 c 0,0.737 0.134,1.406 0.403,2.01 0.267,0.637 0.636,1.189 1.105,1.658 1.004,1.005 2.228,1.508 3.669,1.508 l 6.421,0 c 1.44,0 2.663,-0.503 3.668,-1.508 0.469,-0.469 0.838,-1.021 1.106,-1.658 0.267,-0.604 0.402,-1.273 0.402,-2.01 l 0,-25.678 5.728,0 0,25.728 c 0,1.474 -0.268,2.848 -0.804,4.121 -0.536,1.273 -1.29,2.395 -2.261,3.367"
             id="path30"
             style="fill:#707980;fill-opacity:1;fill-rule:nonzero;stroke:none"
             inkscape:connector-curvature="0" /></g></g></g></g></svg>