<?xml version="1.0"?>
<svg width="139.2" height="24.8" xmlns="http://www.w3.org/2000/svg">
 <!-- Created with Method Draw - http://github.com/duopixel/Method-Draw/ -->
 <g>
  <title>Layer 1</title>
  <g id="svg_16">
   <g id="svg_3">
    <path id="svg_1" d="m13.840424,8.460999c0,3.300003 -2,6.300003 -5.900002,7l5.5,6.5l0.5,-0.699997l9.900002,-14l0,-5.900002l-16.099998,0l0,0c4.099998,0.400002 6.099998,3.799995 6.099998,7.099998z" fill="#F6B21A"/>
    <path id="svg_2" d="m16.640427,23.060997l7.300003,-10.199997l0,11l-7.900009,0l0.600006,-0.800003zm-14.100006,-10.599998l3.800003,0c2.800003,0 4.199997,-2 4.199997,-4c0,-2 -1.399994,-3.900002 -4.199997,-3.900002l-5,0l0,0l-0.199997,0l0,19.5l9.699997,0l-8.300003,-10l0,-1.599998l0,0z" fill="#2A3172"/>
   </g>
   <rect id="svg_4" height="15.4" width="3.3" fill="#2A3172" y="5.260999" x="57.240424"/>
   <path id="svg_5" d="m67.740417,14.460999c-1.300003,0 -2.400009,-0.400002 -3.300003,-1.300003c-0.899994,-0.899994 -1.399994,-2 -1.399994,-3.299995c0,-1.300003 0.5,-2.400002 1.399994,-3.300003c0.899994,-0.900002 2,-1.400002 3.300003,-1.400002l17.300003,0l0,3.300003l-17.300003,0c-0.400009,0 -0.699997,0.199997 -1,0.400002s-0.400009,0.599998 -0.400009,1s0.200012,0.699997 0.400009,1s0.599991,0.400002 1,0.400002l12.600006,0c1.300003,0 2.399994,0.5 3.300003,1.399994c0.899994,0.900002 1.399994,2 1.399994,3.300003c0,1.300003 -0.5,2.400002 -1.399994,3.300003c-0.900009,0.899994 -2,1.399994 -3.300003,1.399994l-17.300003,0l0,-3.399994l17.300003,0c0.399994,0 0.699997,-0.200005 1,-0.400002s0.399994,-0.599998 0.399994,-1c0,-0.400002 -0.199997,-0.700005 -0.399994,-1s-0.600006,-0.400002 -1,-0.400002l-12.600006,0l0,0z" fill="#2A3172"/>
   <path id="svg_6" d="m94.340424,5.261002l14.300003,0l0,3.299995l-14.300003,0c-1.199997,0 -2.199997,0.400002 -3.100006,1.300003c-0.899994,0.900002 -1.299988,1.900002 -1.299988,3.099998s0.399994,2.199997 1.299988,3.099998c0.900009,0.900002 1.900009,1.300003 3.100006,1.300003l14.300003,0l0,3.299995l-14.300003,0c-2.100006,0 -3.899994,-0.699997 -5.399994,-2.199997c-1.5,-1.5 -2.200012,-3.300003 -2.200012,-5.400002c0,-2.099998 0.700012,-3.900002 2.200012,-5.400002c1.5,-1.599998 3.299988,-2.399994 5.399994,-2.399994z" fill="#2A3172"/>
   <path id="svg_7" d="m54.840424,20.660995l-4.399994,-6.099998c1.199997,-0.099998 2.199997,-0.5 3,-1.400002c0.899994,-0.899994 1.399994,-2 1.399994,-3.299995c0,-1.300003 -0.5,-2.400002 -1.399994,-3.300003c-0.900009,-0.900002 -2,-1.400002 -3.300003,-1.400002l-17.300003,0l0,15.400002l3.300003,0l0,-6l10.199997,0l4.399994,6.099998c0.100006,0 4.100006,0 4.100006,0zm-18.699997,-12.099998l14,0c0.399994,0 0.699997,0.200005 1,0.400002s0.399994,0.599998 0.399994,1s-0.199997,0.699997 -0.399994,1s-0.600006,0.400002 -1,0.400002l-14,0c0,0 0,-2.800003 0,-2.800003z" fill="#2A3172"/>
  </g>
  <path id="svg_34" d="m125.140427,20.660995l-9,-15.399994l3.800003,0l7.099991,12.199997l7.100006,-12.199997l3.800003,0l-9,15.399994" fill="#F6B21A"/>
  <rect id="svg_35" height="3" width="6.5" fill="#F6B21A" y="11.460999" x="110.640424"/>
 </g>
</svg>